<mxfile host="app.diagrams.net" modified="2022-02-26T12:46:06.571Z" agent="5.0 (Windows NT 10.0; Win64; x64) AppleWebKit/537.36 (KHTML, like Gecko) Chrome/98.0.4758.102 Safari/537.36 Edg/98.0.1108.62" etag="q65B7q4EebL4dvqT-yry" version="16.6.4" type="github">
  <diagram name="Page-1" id="97916047-d0de-89f5-080d-49f4d83e522f">
    <mxGraphModel dx="1221" dy="794" grid="1" gridSize="10" guides="1" tooltips="1" connect="1" arrows="1" fold="1" page="1" pageScale="1.5" pageWidth="1169" pageHeight="827" background="none" math="0" shadow="0">
      <root>
        <mxCell id="0" />
        <mxCell id="1" parent="0" />
        <mxCell id="0yuwsbS3l7bWuDVzYH4C-59" value="" style="edgeStyle=orthogonalEdgeStyle;rounded=1;orthogonalLoop=1;jettySize=auto;exitX=0.5;exitY=1;exitDx=0;exitDy=0;fontSize=11;fontStyle=1;strokeWidth=4;" edge="1" parent="1" source="2" target="0yuwsbS3l7bWuDVzYH4C-55">
          <mxGeometry relative="1" as="geometry" />
        </mxCell>
        <mxCell id="0yuwsbS3l7bWuDVzYH4C-65" style="edgeStyle=orthogonalEdgeStyle;rounded=1;orthogonalLoop=1;jettySize=auto;html=0;exitX=0.5;exitY=1;exitDx=0;exitDy=0;fontSize=11;strokeWidth=4;" edge="1" parent="1" source="2" target="0yuwsbS3l7bWuDVzYH4C-63">
          <mxGeometry relative="1" as="geometry" />
        </mxCell>
        <mxCell id="0yuwsbS3l7bWuDVzYH4C-69" style="edgeStyle=orthogonalEdgeStyle;rounded=1;orthogonalLoop=1;jettySize=auto;html=0;exitX=0.5;exitY=1;exitDx=0;exitDy=0;fontSize=11;strokeWidth=4;" edge="1" parent="1" source="2" target="0yuwsbS3l7bWuDVzYH4C-68">
          <mxGeometry relative="1" as="geometry" />
        </mxCell>
        <mxCell id="2" value="元宇宙" style="rounded=1;fillColor=#f8cecc;strokeColor=#b85450;shadow=1;fontStyle=1;fontSize=33;" parent="1" vertex="1">
          <mxGeometry x="800" y="40" width="208" height="80" as="geometry" />
        </mxCell>
        <mxCell id="0yuwsbS3l7bWuDVzYH4C-80" style="edgeStyle=orthogonalEdgeStyle;rounded=1;orthogonalLoop=1;jettySize=auto;html=0;exitX=0.5;exitY=1;exitDx=0;exitDy=0;entryX=0.5;entryY=0;entryDx=0;entryDy=0;fontSize=18;endArrow=classicThin;endFill=1;strokeColor=#FFCC99;strokeWidth=4;" edge="1" parent="1" source="3" target="0yuwsbS3l7bWuDVzYH4C-79">
          <mxGeometry relative="1" as="geometry" />
        </mxCell>
        <mxCell id="0yuwsbS3l7bWuDVzYH4C-88" style="edgeStyle=orthogonalEdgeStyle;rounded=1;orthogonalLoop=1;jettySize=auto;html=0;exitX=0.5;exitY=1;exitDx=0;exitDy=0;entryX=0.5;entryY=0;entryDx=0;entryDy=0;fontSize=18;endArrow=classicThin;endFill=1;strokeColor=#FFCC99;strokeWidth=4;" edge="1" parent="1" source="3" target="0yuwsbS3l7bWuDVzYH4C-84">
          <mxGeometry relative="1" as="geometry" />
        </mxCell>
        <mxCell id="0yuwsbS3l7bWuDVzYH4C-98" style="edgeStyle=orthogonalEdgeStyle;rounded=1;orthogonalLoop=1;jettySize=auto;html=0;exitX=0.5;exitY=1;exitDx=0;exitDy=0;entryX=0.5;entryY=0;entryDx=0;entryDy=0;fontSize=18;endArrow=classicThin;endFill=1;strokeColor=#FFCC99;strokeWidth=4;" edge="1" parent="1" source="3" target="0yuwsbS3l7bWuDVzYH4C-94">
          <mxGeometry relative="1" as="geometry" />
        </mxCell>
        <mxCell id="3" value="技术开发部" style="rounded=1;fillColor=#fff2cc;strokeColor=#d6b656;shadow=1;fontStyle=3;fontSize=18;" parent="1" vertex="1">
          <mxGeometry x="410" y="170" width="220" height="60" as="geometry" />
        </mxCell>
        <mxCell id="29" value="" style="edgeStyle=elbowEdgeStyle;elbow=vertical;strokeWidth=4;endArrow=block;endFill=1;fontStyle=1;strokeColor=#23445D;" parent="1" source="2" target="3" edge="1">
          <mxGeometry x="22" y="165.5" width="100" height="100" as="geometry">
            <mxPoint x="22" y="265.5" as="sourcePoint" />
            <mxPoint x="122" y="165.5" as="targetPoint" />
          </mxGeometry>
        </mxCell>
        <mxCell id="0yuwsbS3l7bWuDVzYH4C-130" style="edgeStyle=orthogonalEdgeStyle;rounded=1;orthogonalLoop=1;jettySize=auto;html=0;exitX=0.5;exitY=1;exitDx=0;exitDy=0;entryX=0.5;entryY=0;entryDx=0;entryDy=0;fontSize=18;fontColor=#99FF33;startArrow=oval;startFill=1;endArrow=classicThin;endFill=1;strokeColor=#FFCC99;strokeWidth=4;" edge="1" parent="1" source="0yuwsbS3l7bWuDVzYH4C-55" target="0yuwsbS3l7bWuDVzYH4C-129">
          <mxGeometry relative="1" as="geometry" />
        </mxCell>
        <mxCell id="0yuwsbS3l7bWuDVzYH4C-134" style="edgeStyle=orthogonalEdgeStyle;rounded=1;orthogonalLoop=1;jettySize=auto;html=0;exitX=0.5;exitY=1;exitDx=0;exitDy=0;fontSize=18;fontColor=#000000;startArrow=oval;startFill=1;endArrow=classicThin;endFill=1;strokeColor=#FFCC99;strokeWidth=4;" edge="1" parent="1" source="0yuwsbS3l7bWuDVzYH4C-55" target="0yuwsbS3l7bWuDVzYH4C-132">
          <mxGeometry relative="1" as="geometry" />
        </mxCell>
        <mxCell id="0yuwsbS3l7bWuDVzYH4C-161" style="edgeStyle=orthogonalEdgeStyle;rounded=1;orthogonalLoop=1;jettySize=auto;html=0;exitX=0.5;exitY=1;exitDx=0;exitDy=0;entryX=0;entryY=0;entryDx=0;entryDy=0;fontSize=18;fontColor=#000000;startArrow=oval;startFill=1;endArrow=classicThin;endFill=1;strokeColor=#FFCC99;strokeWidth=4;" edge="1" parent="1" source="0yuwsbS3l7bWuDVzYH4C-55" target="0yuwsbS3l7bWuDVzYH4C-159">
          <mxGeometry relative="1" as="geometry" />
        </mxCell>
        <mxCell id="0yuwsbS3l7bWuDVzYH4C-55" value="市场推广部" style="rounded=1;fillColor=#fff2cc;strokeColor=#d6b656;shadow=1;fontStyle=3;fontSize=18;" vertex="1" parent="1">
          <mxGeometry x="657" y="170" width="220" height="60" as="geometry" />
        </mxCell>
        <mxCell id="0yuwsbS3l7bWuDVzYH4C-63" value="行政管理部分" style="rounded=1;fillColor=#fff2cc;strokeColor=#d6b656;shadow=1;fontStyle=3;fontSize=18;" vertex="1" parent="1">
          <mxGeometry x="950" y="170" width="220" height="60" as="geometry" />
        </mxCell>
        <mxCell id="0yuwsbS3l7bWuDVzYH4C-147" style="edgeStyle=orthogonalEdgeStyle;rounded=1;orthogonalLoop=1;jettySize=auto;html=0;exitX=0.5;exitY=1;exitDx=0;exitDy=0;fontSize=18;fontColor=#000000;startArrow=oval;startFill=1;endArrow=classicThin;endFill=1;strokeColor=#FFCC99;strokeWidth=4;" edge="1" parent="1" source="0yuwsbS3l7bWuDVzYH4C-68" target="0yuwsbS3l7bWuDVzYH4C-145">
          <mxGeometry relative="1" as="geometry" />
        </mxCell>
        <mxCell id="0yuwsbS3l7bWuDVzYH4C-148" style="edgeStyle=orthogonalEdgeStyle;rounded=1;orthogonalLoop=1;jettySize=auto;html=0;exitX=0.5;exitY=1;exitDx=0;exitDy=0;fontSize=18;fontColor=#000000;startArrow=oval;startFill=1;endArrow=classicThin;endFill=1;strokeColor=#FFCC99;strokeWidth=4;" edge="1" parent="1" source="0yuwsbS3l7bWuDVzYH4C-68" target="0yuwsbS3l7bWuDVzYH4C-144">
          <mxGeometry relative="1" as="geometry" />
        </mxCell>
        <mxCell id="0yuwsbS3l7bWuDVzYH4C-149" style="edgeStyle=orthogonalEdgeStyle;rounded=1;orthogonalLoop=1;jettySize=auto;html=0;exitX=0.5;exitY=1;exitDx=0;exitDy=0;fontSize=18;fontColor=#000000;startArrow=oval;startFill=1;endArrow=classicThin;endFill=1;strokeColor=#FFCC99;strokeWidth=4;" edge="1" parent="1" source="0yuwsbS3l7bWuDVzYH4C-68" target="0yuwsbS3l7bWuDVzYH4C-146">
          <mxGeometry relative="1" as="geometry" />
        </mxCell>
        <mxCell id="0yuwsbS3l7bWuDVzYH4C-68" value="内控部门" style="rounded=1;fillColor=#fff2cc;strokeColor=#d6b656;shadow=1;fontStyle=3;fontSize=18;" vertex="1" parent="1">
          <mxGeometry x="1200" y="170" width="220" height="60" as="geometry" />
        </mxCell>
        <mxCell id="0yuwsbS3l7bWuDVzYH4C-90" value="" style="edgeStyle=orthogonalEdgeStyle;rounded=1;orthogonalLoop=1;jettySize=auto;html=0;fontSize=18;endArrow=classicThin;endFill=1;strokeColor=#FFCC99;strokeWidth=4;" edge="1" parent="1" source="0yuwsbS3l7bWuDVzYH4C-70" target="0yuwsbS3l7bWuDVzYH4C-89">
          <mxGeometry relative="1" as="geometry" />
        </mxCell>
        <mxCell id="0yuwsbS3l7bWuDVzYH4C-70" value="" style="rounded=0;whiteSpace=wrap;html=1;fontSize=18;fillColor=#fff2cc;strokeColor=#d6b656;" vertex="1" parent="1">
          <mxGeometry x="1040" y="70" width="20" height="20" as="geometry" />
        </mxCell>
        <mxCell id="0yuwsbS3l7bWuDVzYH4C-79" value="算法组" style="swimlane;fontSize=18;fillColor=#d0cee2;strokeColor=#56517e;swimlaneFillColor=none;rounded=1;startSize=30;" vertex="1" parent="1">
          <mxGeometry x="310" y="290" width="130" height="130" as="geometry" />
        </mxCell>
        <mxCell id="0yuwsbS3l7bWuDVzYH4C-81" value="AI算法" style="whiteSpace=wrap;html=1;rounded=1;fontSize=18;" vertex="1" parent="0yuwsbS3l7bWuDVzYH4C-79">
          <mxGeometry x="10" y="30" width="110" height="30" as="geometry" />
        </mxCell>
        <mxCell id="0yuwsbS3l7bWuDVzYH4C-82" value="安全性算法" style="whiteSpace=wrap;html=1;rounded=1;fontSize=18;" vertex="1" parent="0yuwsbS3l7bWuDVzYH4C-79">
          <mxGeometry x="10" y="60" width="110" height="30" as="geometry" />
        </mxCell>
        <mxCell id="0yuwsbS3l7bWuDVzYH4C-83" value="游戏算法" style="whiteSpace=wrap;html=1;rounded=1;fontSize=18;" vertex="1" parent="0yuwsbS3l7bWuDVzYH4C-79">
          <mxGeometry x="10" y="90" width="110" height="30" as="geometry" />
        </mxCell>
        <mxCell id="0yuwsbS3l7bWuDVzYH4C-84" value="服务设施组" style="swimlane;fontSize=18;fillColor=#d0cee2;strokeColor=#56517e;swimlaneFillColor=none;rounded=1;startSize=30;" vertex="1" parent="1">
          <mxGeometry x="455" y="290" width="130" height="130" as="geometry" />
        </mxCell>
        <mxCell id="0yuwsbS3l7bWuDVzYH4C-85" value="云计算" style="whiteSpace=wrap;html=1;rounded=1;fontSize=18;" vertex="1" parent="0yuwsbS3l7bWuDVzYH4C-84">
          <mxGeometry x="10" y="30" width="110" height="30" as="geometry" />
        </mxCell>
        <mxCell id="0yuwsbS3l7bWuDVzYH4C-86" value="5G/6G支持" style="whiteSpace=wrap;html=1;rounded=1;fontSize=18;" vertex="1" parent="0yuwsbS3l7bWuDVzYH4C-84">
          <mxGeometry x="10" y="60" width="110" height="30" as="geometry" />
        </mxCell>
        <mxCell id="0yuwsbS3l7bWuDVzYH4C-87" value="区块链技术" style="whiteSpace=wrap;html=1;rounded=1;fontSize=18;" vertex="1" parent="0yuwsbS3l7bWuDVzYH4C-84">
          <mxGeometry x="10" y="90" width="110" height="30" as="geometry" />
        </mxCell>
        <mxCell id="0yuwsbS3l7bWuDVzYH4C-89" value="一级部门" style="ellipse;whiteSpace=wrap;html=1;fontSize=18;fillColor=#fff2cc;strokeColor=#d6b656;rounded=0;" vertex="1" parent="1">
          <mxGeometry x="1090" y="50" width="130" height="60" as="geometry" />
        </mxCell>
        <mxCell id="0yuwsbS3l7bWuDVzYH4C-91" value="" style="edgeStyle=orthogonalEdgeStyle;rounded=1;orthogonalLoop=1;jettySize=auto;html=0;fontSize=18;endArrow=classicThin;endFill=1;strokeColor=#FFCC99;strokeWidth=4;" edge="1" parent="1" source="0yuwsbS3l7bWuDVzYH4C-92" target="0yuwsbS3l7bWuDVzYH4C-93">
          <mxGeometry relative="1" as="geometry" />
        </mxCell>
        <mxCell id="0yuwsbS3l7bWuDVzYH4C-92" value="" style="rounded=0;whiteSpace=wrap;html=1;fontSize=18;fillColor=#d0cee2;strokeColor=#56517e;" vertex="1" parent="1">
          <mxGeometry x="1260" y="70" width="20" height="20" as="geometry" />
        </mxCell>
        <mxCell id="0yuwsbS3l7bWuDVzYH4C-93" value="二级部门" style="ellipse;whiteSpace=wrap;html=1;fontSize=18;fillColor=#d0cee2;strokeColor=#56517e;rounded=0;" vertex="1" parent="1">
          <mxGeometry x="1310" y="50" width="130" height="60" as="geometry" />
        </mxCell>
        <mxCell id="0yuwsbS3l7bWuDVzYH4C-94" value="交互设施组" style="swimlane;fontSize=18;fillColor=#d0cee2;strokeColor=#56517e;swimlaneFillColor=none;rounded=1;startSize=30;" vertex="1" parent="1">
          <mxGeometry x="600" y="290" width="130" height="130" as="geometry" />
        </mxCell>
        <mxCell id="0yuwsbS3l7bWuDVzYH4C-95" value="VR开发" style="whiteSpace=wrap;html=1;rounded=1;fontSize=18;" vertex="1" parent="0yuwsbS3l7bWuDVzYH4C-94">
          <mxGeometry x="10" y="30" width="110" height="30" as="geometry" />
        </mxCell>
        <mxCell id="0yuwsbS3l7bWuDVzYH4C-96" value="AR开发" style="whiteSpace=wrap;html=1;rounded=1;fontSize=18;" vertex="1" parent="0yuwsbS3l7bWuDVzYH4C-94">
          <mxGeometry x="10" y="60" width="110" height="30" as="geometry" />
        </mxCell>
        <mxCell id="0yuwsbS3l7bWuDVzYH4C-97" value="脑机技术" style="whiteSpace=wrap;html=1;rounded=1;fontSize=18;" vertex="1" parent="0yuwsbS3l7bWuDVzYH4C-94">
          <mxGeometry x="10" y="90" width="110" height="30" as="geometry" />
        </mxCell>
        <mxCell id="0yuwsbS3l7bWuDVzYH4C-105" style="edgeStyle=orthogonalEdgeStyle;rounded=1;orthogonalLoop=1;jettySize=auto;html=0;exitX=0.5;exitY=0;exitDx=0;exitDy=0;fontSize=18;endArrow=oval;endFill=1;strokeColor=#FFCC99;strokeWidth=4;startArrow=classicThin;startFill=1;" edge="1" parent="1" source="0yuwsbS3l7bWuDVzYH4C-100">
          <mxGeometry relative="1" as="geometry">
            <mxPoint x="444.8823529411766" y="260" as="targetPoint" />
          </mxGeometry>
        </mxCell>
        <mxCell id="0yuwsbS3l7bWuDVzYH4C-100" value="底层支持组" style="swimlane;fontSize=18;fillColor=#d0cee2;strokeColor=#56517e;swimlaneFillColor=none;rounded=1;startSize=30;" vertex="1" parent="1">
          <mxGeometry x="380" y="450" width="130" height="130" as="geometry" />
        </mxCell>
        <mxCell id="0yuwsbS3l7bWuDVzYH4C-101" value="游戏引擎" style="whiteSpace=wrap;html=1;rounded=1;fontSize=18;" vertex="1" parent="0yuwsbS3l7bWuDVzYH4C-100">
          <mxGeometry x="10" y="30" width="110" height="30" as="geometry" />
        </mxCell>
        <mxCell id="0yuwsbS3l7bWuDVzYH4C-102" value="工业物联网" style="whiteSpace=wrap;html=1;rounded=1;fontSize=18;" vertex="1" parent="0yuwsbS3l7bWuDVzYH4C-100">
          <mxGeometry x="10" y="60" width="110" height="30" as="geometry" />
        </mxCell>
        <mxCell id="0yuwsbS3l7bWuDVzYH4C-103" value="操作系统" style="whiteSpace=wrap;html=1;rounded=1;fontSize=18;" vertex="1" parent="0yuwsbS3l7bWuDVzYH4C-100">
          <mxGeometry x="10" y="90" width="110" height="30" as="geometry" />
        </mxCell>
        <mxCell id="0yuwsbS3l7bWuDVzYH4C-112" style="edgeStyle=orthogonalEdgeStyle;rounded=1;orthogonalLoop=1;jettySize=auto;html=0;exitX=0.5;exitY=0;exitDx=0;exitDy=0;fontSize=18;startArrow=classicThin;startFill=1;endArrow=oval;endFill=1;strokeColor=#FFCC99;strokeWidth=4;" edge="1" parent="1" source="0yuwsbS3l7bWuDVzYH4C-106">
          <mxGeometry relative="1" as="geometry">
            <mxPoint x="591.9411764705883" y="260" as="targetPoint" />
          </mxGeometry>
        </mxCell>
        <mxCell id="0yuwsbS3l7bWuDVzYH4C-106" value="硬件设备组" style="swimlane;fontSize=18;fillColor=#d0cee2;strokeColor=#56517e;swimlaneFillColor=none;rounded=1;startSize=30;" vertex="1" parent="1">
          <mxGeometry x="527" y="450" width="130" height="130" as="geometry" />
        </mxCell>
        <mxCell id="0yuwsbS3l7bWuDVzYH4C-107" value="芯片" style="whiteSpace=wrap;html=1;rounded=1;fontSize=18;" vertex="1" parent="0yuwsbS3l7bWuDVzYH4C-106">
          <mxGeometry x="10" y="30" width="110" height="30" as="geometry" />
        </mxCell>
        <mxCell id="0yuwsbS3l7bWuDVzYH4C-108" value="传感器" style="whiteSpace=wrap;html=1;rounded=1;fontSize=18;" vertex="1" parent="0yuwsbS3l7bWuDVzYH4C-106">
          <mxGeometry x="10" y="60" width="110" height="30" as="geometry" />
        </mxCell>
        <mxCell id="0yuwsbS3l7bWuDVzYH4C-109" value="配套设备" style="whiteSpace=wrap;html=1;rounded=1;fontSize=18;" vertex="1" parent="0yuwsbS3l7bWuDVzYH4C-106">
          <mxGeometry x="10" y="90" width="110" height="30" as="geometry" />
        </mxCell>
        <mxCell id="0yuwsbS3l7bWuDVzYH4C-117" value="" style="endArrow=none;dashed=1;html=1;dashPattern=1 3;strokeWidth=2;rounded=1;fontSize=18;" edge="1" parent="1">
          <mxGeometry width="50" height="50" relative="1" as="geometry">
            <mxPoint x="310" y="590" as="sourcePoint" />
            <mxPoint x="740" y="590" as="targetPoint" />
          </mxGeometry>
        </mxCell>
        <mxCell id="0yuwsbS3l7bWuDVzYH4C-119" value="" style="endArrow=none;dashed=1;html=1;dashPattern=1 3;strokeWidth=2;rounded=1;fontSize=18;" edge="1" parent="1">
          <mxGeometry width="50" height="50" relative="1" as="geometry">
            <mxPoint x="730" y="590" as="sourcePoint" />
            <mxPoint x="730" y="430" as="targetPoint" />
            <Array as="points">
              <mxPoint x="730" y="510" />
            </Array>
          </mxGeometry>
        </mxCell>
        <mxCell id="0yuwsbS3l7bWuDVzYH4C-120" value="" style="endArrow=none;dashed=1;html=1;dashPattern=1 3;strokeWidth=2;rounded=1;fontSize=18;" edge="1" parent="1">
          <mxGeometry width="50" height="50" relative="1" as="geometry">
            <mxPoint x="320" y="440" as="sourcePoint" />
            <mxPoint x="730" y="440" as="targetPoint" />
          </mxGeometry>
        </mxCell>
        <mxCell id="0yuwsbS3l7bWuDVzYH4C-121" value="" style="endArrow=none;dashed=1;html=1;dashPattern=1 3;strokeWidth=2;rounded=1;fontSize=18;" edge="1" parent="1">
          <mxGeometry width="50" height="50" relative="1" as="geometry">
            <mxPoint x="320" y="590" as="sourcePoint" />
            <mxPoint x="320" y="440" as="targetPoint" />
          </mxGeometry>
        </mxCell>
        <mxCell id="0yuwsbS3l7bWuDVzYH4C-122" value="" style="curved=1;endArrow=classic;html=1;rounded=1;fontSize=18;strokeColor=#FFCC99;strokeWidth=4;" edge="1" parent="1">
          <mxGeometry width="50" height="50" relative="1" as="geometry">
            <mxPoint x="330" y="560" as="sourcePoint" />
            <mxPoint x="290" y="340" as="targetPoint" />
            <Array as="points">
              <mxPoint x="380" y="510" />
              <mxPoint x="250" y="420" />
            </Array>
          </mxGeometry>
        </mxCell>
        <mxCell id="0yuwsbS3l7bWuDVzYH4C-123" value="&lt;i&gt;&lt;font color=&quot;#99ff33&quot;&gt;支撑&lt;/font&gt;&lt;/i&gt;" style="text;html=1;strokeColor=none;fillColor=none;align=center;verticalAlign=middle;whiteSpace=wrap;rounded=0;fontSize=18;" vertex="1" parent="1">
          <mxGeometry x="240" y="410" width="60" height="30" as="geometry" />
        </mxCell>
        <mxCell id="0yuwsbS3l7bWuDVzYH4C-124" value="" style="endArrow=none;dashed=1;html=1;dashPattern=1 3;strokeWidth=2;rounded=1;fontSize=18;fontColor=#99FF33;" edge="1" parent="1">
          <mxGeometry width="50" height="50" relative="1" as="geometry">
            <mxPoint x="300" y="260" as="sourcePoint" />
            <mxPoint x="760" y="260" as="targetPoint" />
          </mxGeometry>
        </mxCell>
        <mxCell id="0yuwsbS3l7bWuDVzYH4C-125" value="" style="endArrow=none;dashed=1;html=1;dashPattern=1 3;strokeWidth=2;rounded=1;fontSize=18;fontColor=#99FF33;" edge="1" parent="1">
          <mxGeometry width="50" height="50" relative="1" as="geometry">
            <mxPoint x="760" y="420" as="sourcePoint" />
            <mxPoint x="760" y="260" as="targetPoint" />
          </mxGeometry>
        </mxCell>
        <mxCell id="0yuwsbS3l7bWuDVzYH4C-126" value="" style="endArrow=none;dashed=1;html=1;dashPattern=1 3;strokeWidth=2;rounded=1;fontSize=18;fontColor=#99FF33;exitX=1;exitY=0.5;exitDx=0;exitDy=0;" edge="1" parent="1" source="0yuwsbS3l7bWuDVzYH4C-123">
          <mxGeometry width="50" height="50" relative="1" as="geometry">
            <mxPoint x="700" y="410" as="sourcePoint" />
            <mxPoint x="760" y="420" as="targetPoint" />
          </mxGeometry>
        </mxCell>
        <mxCell id="0yuwsbS3l7bWuDVzYH4C-127" value="" style="endArrow=none;dashed=1;html=1;dashPattern=1 3;strokeWidth=2;rounded=1;fontSize=18;fontColor=#99FF33;exitX=1;exitY=0.5;exitDx=0;exitDy=0;" edge="1" parent="1" source="0yuwsbS3l7bWuDVzYH4C-123">
          <mxGeometry width="50" height="50" relative="1" as="geometry">
            <mxPoint x="700" y="410" as="sourcePoint" />
            <mxPoint x="300" y="260" as="targetPoint" />
          </mxGeometry>
        </mxCell>
        <mxCell id="0yuwsbS3l7bWuDVzYH4C-129" value="&lt;b&gt;社媒宣传组&lt;/b&gt;" style="shape=parallelogram;perimeter=parallelogramPerimeter;whiteSpace=wrap;html=1;fixedSize=1;rounded=1;fontSize=18;fillColor=#d0cee2;strokeColor=#56517e;" vertex="1" parent="1">
          <mxGeometry x="770" y="290" width="120" height="40" as="geometry" />
        </mxCell>
        <mxCell id="0yuwsbS3l7bWuDVzYH4C-131" value="&lt;font color=&quot;#000000&quot;&gt;微博、知乎、b站&lt;/font&gt;" style="shape=dataStorage;whiteSpace=wrap;html=1;fixedSize=1;rounded=1;fontSize=18;fontColor=#99FF33;" vertex="1" parent="1">
          <mxGeometry x="770" y="330" width="100" height="60" as="geometry" />
        </mxCell>
        <mxCell id="0yuwsbS3l7bWuDVzYH4C-132" value="&lt;b&gt;广告组&lt;/b&gt;" style="shape=parallelogram;perimeter=parallelogramPerimeter;whiteSpace=wrap;html=1;fixedSize=1;rounded=1;fontSize=18;fillColor=#d0cee2;strokeColor=#56517e;" vertex="1" parent="1">
          <mxGeometry x="880" y="290" width="120" height="40" as="geometry" />
        </mxCell>
        <mxCell id="0yuwsbS3l7bWuDVzYH4C-133" value="&lt;font color=&quot;#000000&quot;&gt;影视、综艺、短视频&lt;/font&gt;" style="shape=dataStorage;whiteSpace=wrap;html=1;fixedSize=1;rounded=1;fontSize=18;fontColor=#99FF33;" vertex="1" parent="1">
          <mxGeometry x="880" y="330" width="100" height="60" as="geometry" />
        </mxCell>
        <mxCell id="0yuwsbS3l7bWuDVzYH4C-138" value="&lt;b&gt;人力资源部门&lt;/b&gt;" style="shape=tape;whiteSpace=wrap;html=1;rounded=1;fontSize=18;fillColor=#d0cee2;strokeColor=#56517e;" vertex="1" parent="1">
          <mxGeometry x="1008" y="240" width="110" height="60" as="geometry" />
        </mxCell>
        <mxCell id="0yuwsbS3l7bWuDVzYH4C-153" style="edgeStyle=orthogonalEdgeStyle;rounded=1;orthogonalLoop=1;jettySize=auto;html=0;exitX=0;exitY=0.5;exitDx=0;exitDy=0;exitPerimeter=0;entryX=1;entryY=0.25;entryDx=0;entryDy=0;fontSize=18;fontColor=#000000;startArrow=oval;startFill=1;endArrow=classicThin;endFill=1;strokeColor=#FFCC99;strokeWidth=4;" edge="1" parent="1" source="0yuwsbS3l7bWuDVzYH4C-140" target="0yuwsbS3l7bWuDVzYH4C-152">
          <mxGeometry relative="1" as="geometry" />
        </mxCell>
        <mxCell id="0yuwsbS3l7bWuDVzYH4C-156" style="edgeStyle=orthogonalEdgeStyle;rounded=1;orthogonalLoop=1;jettySize=auto;html=0;exitX=1;exitY=0.5;exitDx=0;exitDy=0;exitPerimeter=0;entryX=0;entryY=0.25;entryDx=0;entryDy=0;fontSize=18;fontColor=#000000;startArrow=oval;startFill=1;endArrow=classicThin;endFill=1;strokeColor=#FFCC99;strokeWidth=4;" edge="1" parent="1" source="0yuwsbS3l7bWuDVzYH4C-140" target="0yuwsbS3l7bWuDVzYH4C-154">
          <mxGeometry relative="1" as="geometry" />
        </mxCell>
        <mxCell id="0yuwsbS3l7bWuDVzYH4C-140" value="&lt;b&gt;运营调控中心&lt;/b&gt;" style="shape=tape;whiteSpace=wrap;html=1;rounded=1;fontSize=18;fillColor=#d0cee2;strokeColor=#56517e;" vertex="1" parent="1">
          <mxGeometry x="1008" y="380" width="112" height="60" as="geometry" />
        </mxCell>
        <mxCell id="0yuwsbS3l7bWuDVzYH4C-141" value="&lt;b&gt;办公部门(财务、税务等）&lt;/b&gt;" style="shape=tape;whiteSpace=wrap;html=1;rounded=1;fontSize=18;fillColor=#d0cee2;strokeColor=#56517e;" vertex="1" parent="1">
          <mxGeometry x="1008" y="310" width="110" height="60" as="geometry" />
        </mxCell>
        <mxCell id="0yuwsbS3l7bWuDVzYH4C-143" value="&lt;b&gt;考核部门&lt;/b&gt;" style="shape=tape;whiteSpace=wrap;html=1;rounded=1;fontSize=18;fillColor=#d0cee2;strokeColor=#56517e;" vertex="1" parent="1">
          <mxGeometry x="1008" y="450" width="110" height="60" as="geometry" />
        </mxCell>
        <mxCell id="0yuwsbS3l7bWuDVzYH4C-144" value="&lt;b&gt;法务部门&lt;/b&gt;" style="ellipse;shape=cloud;whiteSpace=wrap;html=1;rounded=1;fontSize=18;fillColor=#d0cee2;strokeColor=#56517e;" vertex="1" parent="1">
          <mxGeometry x="1130" y="290" width="110" height="60" as="geometry" />
        </mxCell>
        <mxCell id="0yuwsbS3l7bWuDVzYH4C-145" value="&lt;b&gt;风险评估部门&lt;/b&gt;" style="ellipse;shape=cloud;whiteSpace=wrap;html=1;rounded=1;fontSize=18;fillColor=#d0cee2;strokeColor=#56517e;" vertex="1" parent="1">
          <mxGeometry x="1255" y="290" width="110" height="60" as="geometry" />
        </mxCell>
        <mxCell id="0yuwsbS3l7bWuDVzYH4C-146" value="&lt;b&gt;资产运营管理&lt;/b&gt;" style="ellipse;shape=cloud;whiteSpace=wrap;html=1;rounded=1;fontSize=18;fillColor=#d0cee2;strokeColor=#56517e;" vertex="1" parent="1">
          <mxGeometry x="1410" y="290" width="120" height="60" as="geometry" />
        </mxCell>
        <mxCell id="0yuwsbS3l7bWuDVzYH4C-152" value="&lt;b&gt;日常运维&lt;/b&gt;" style="shape=trapezoid;perimeter=trapezoidPerimeter;whiteSpace=wrap;html=1;fixedSize=1;rounded=1;fontSize=18;fontColor=#000000;" vertex="1" parent="1">
          <mxGeometry x="850" y="440" width="100" height="40" as="geometry" />
        </mxCell>
        <mxCell id="0yuwsbS3l7bWuDVzYH4C-154" value="&lt;b&gt;应急中心&lt;/b&gt;" style="shape=trapezoid;perimeter=trapezoidPerimeter;whiteSpace=wrap;html=1;fixedSize=1;rounded=1;fontSize=18;fontColor=#000000;" vertex="1" parent="1">
          <mxGeometry x="1150" y="440" width="100" height="40" as="geometry" />
        </mxCell>
        <mxCell id="0yuwsbS3l7bWuDVzYH4C-159" value="&lt;b&gt;创意挖掘组&lt;/b&gt;" style="shape=parallelogram;perimeter=parallelogramPerimeter;whiteSpace=wrap;html=1;fixedSize=1;rounded=1;fontSize=18;fillColor=#d0cee2;strokeColor=#56517e;" vertex="1" parent="1">
          <mxGeometry x="750" y="480" width="120" height="40" as="geometry" />
        </mxCell>
        <mxCell id="0yuwsbS3l7bWuDVzYH4C-160" value="&lt;font color=&quot;#000000&quot;&gt;创新新形式&lt;/font&gt;" style="shape=dataStorage;whiteSpace=wrap;html=1;fixedSize=1;rounded=1;fontSize=18;fontColor=#99FF33;" vertex="1" parent="1">
          <mxGeometry x="750" y="520" width="100" height="60" as="geometry" />
        </mxCell>
        <mxCell id="0yuwsbS3l7bWuDVzYH4C-163" value="" style="endArrow=classic;startArrow=classic;html=1;rounded=1;fontSize=18;fontColor=#000000;strokeColor=#FF6666;strokeWidth=4;entryX=0;entryY=0.25;entryDx=0;entryDy=0;" edge="1" parent="1" target="0yuwsbS3l7bWuDVzYH4C-160">
          <mxGeometry width="50" height="50" relative="1" as="geometry">
            <mxPoint x="630" y="430" as="sourcePoint" />
            <mxPoint x="740" y="620" as="targetPoint" />
          </mxGeometry>
        </mxCell>
        <mxCell id="0yuwsbS3l7bWuDVzYH4C-164" value="乙方|甲方" style="ellipse;whiteSpace=wrap;html=1;rounded=1;fontSize=18;fontColor=#000000;" vertex="1" parent="1">
          <mxGeometry x="660" y="535" width="90" height="30" as="geometry" />
        </mxCell>
        <mxCell id="0yuwsbS3l7bWuDVzYH4C-170" style="edgeStyle=orthogonalEdgeStyle;rounded=1;orthogonalLoop=1;jettySize=auto;html=0;fontSize=30;fontColor=#000000;startArrow=oval;startFill=1;endArrow=classicThin;endFill=1;strokeColor=#FF6666;strokeWidth=4;" edge="1" parent="1" source="0yuwsbS3l7bWuDVzYH4C-166">
          <mxGeometry relative="1" as="geometry">
            <mxPoint x="510" y="589.9999999999998" as="targetPoint" />
          </mxGeometry>
        </mxCell>
        <mxCell id="0yuwsbS3l7bWuDVzYH4C-172" style="edgeStyle=orthogonalEdgeStyle;rounded=1;orthogonalLoop=1;jettySize=auto;html=0;exitX=0.5;exitY=0;exitDx=0;exitDy=0;fontSize=30;fontColor=#000000;startArrow=oval;startFill=1;endArrow=classicThin;endFill=1;strokeColor=#FF6666;strokeWidth=4;" edge="1" parent="1" source="0yuwsbS3l7bWuDVzYH4C-166">
          <mxGeometry relative="1" as="geometry">
            <mxPoint x="880" y="580" as="targetPoint" />
          </mxGeometry>
        </mxCell>
        <mxCell id="0yuwsbS3l7bWuDVzYH4C-174" style="edgeStyle=orthogonalEdgeStyle;rounded=1;orthogonalLoop=1;jettySize=auto;html=0;exitX=1;exitY=0.5;exitDx=0;exitDy=0;fontSize=30;fontColor=#000000;startArrow=oval;startFill=1;endArrow=classicThin;endFill=1;strokeColor=#FF6666;strokeWidth=4;" edge="1" parent="1" source="0yuwsbS3l7bWuDVzYH4C-166">
          <mxGeometry relative="1" as="geometry">
            <mxPoint x="1240" y="539.9999999999998" as="targetPoint" />
          </mxGeometry>
        </mxCell>
        <mxCell id="0yuwsbS3l7bWuDVzYH4C-166" value="&lt;font style=&quot;font-size: 30px&quot;&gt;&lt;b&gt;&lt;i&gt;第三方&lt;/i&gt;&lt;/b&gt;&lt;/font&gt;" style="rhombus;whiteSpace=wrap;html=1;rounded=1;fontSize=18;fillColor=#dae8fc;gradientColor=#7ea6e0;strokeColor=#6c8ebf;" vertex="1" parent="1">
          <mxGeometry x="670" y="680" width="295" height="130" as="geometry" />
        </mxCell>
        <mxCell id="0yuwsbS3l7bWuDVzYH4C-167" value="" style="edgeStyle=orthogonalEdgeStyle;rounded=1;orthogonalLoop=1;jettySize=auto;html=0;fontSize=18;endArrow=classicThin;endFill=1;strokeColor=#6c8ebf;strokeWidth=4;fillColor=#dae8fc;gradientColor=#7ea6e0;" edge="1" parent="1" source="0yuwsbS3l7bWuDVzYH4C-168" target="0yuwsbS3l7bWuDVzYH4C-169">
          <mxGeometry relative="1" as="geometry" />
        </mxCell>
        <mxCell id="0yuwsbS3l7bWuDVzYH4C-168" value="" style="rounded=0;whiteSpace=wrap;html=1;fontSize=18;fillColor=#dae8fc;strokeColor=#6c8ebf;gradientColor=#7ea6e0;" vertex="1" parent="1">
          <mxGeometry x="1480" y="70" width="20" height="20" as="geometry" />
        </mxCell>
        <mxCell id="0yuwsbS3l7bWuDVzYH4C-169" value="第三方" style="ellipse;whiteSpace=wrap;html=1;fontSize=18;fillColor=#dae8fc;strokeColor=#6c8ebf;rounded=0;gradientColor=#7ea6e0;" vertex="1" parent="1">
          <mxGeometry x="1530" y="50" width="130" height="60" as="geometry" />
        </mxCell>
        <mxCell id="0yuwsbS3l7bWuDVzYH4C-171" value="技术支持" style="ellipse;whiteSpace=wrap;html=1;rounded=1;fontSize=18;fontColor=#000000;" vertex="1" parent="1">
          <mxGeometry x="510" y="650" width="90" height="30" as="geometry" />
        </mxCell>
        <mxCell id="0yuwsbS3l7bWuDVzYH4C-173" value="管理支持" style="ellipse;whiteSpace=wrap;html=1;rounded=1;fontSize=18;fontColor=#000000;" vertex="1" parent="1">
          <mxGeometry x="820" y="650" width="90" height="30" as="geometry" />
        </mxCell>
        <mxCell id="0yuwsbS3l7bWuDVzYH4C-175" value="各种服务支持" style="ellipse;whiteSpace=wrap;html=1;rounded=1;fontSize=18;fontColor=#000000;" vertex="1" parent="1">
          <mxGeometry x="1130" y="650" width="115" height="30" as="geometry" />
        </mxCell>
        <mxCell id="0yuwsbS3l7bWuDVzYH4C-176" value="元宇宙组织架构" style="rounded=1;whiteSpace=wrap;html=1;fontSize=30;fontColor=#000000;" vertex="1" parent="1">
          <mxGeometry x="300" y="30" width="250" height="60" as="geometry" />
        </mxCell>
        <mxCell id="0yuwsbS3l7bWuDVzYH4C-184" style="edgeStyle=orthogonalEdgeStyle;rounded=1;orthogonalLoop=1;jettySize=auto;html=0;exitX=0;exitY=0.3333333333333333;exitDx=0;exitDy=0;exitPerimeter=0;entryX=0.818;entryY=1;entryDx=0;entryDy=0;entryPerimeter=0;fontSize=17;fontColor=#000000;startArrow=oval;startFill=1;endArrow=classicThin;endFill=1;strokeColor=#99FF33;strokeWidth=4;" edge="1" parent="1" source="0yuwsbS3l7bWuDVzYH4C-177" target="0yuwsbS3l7bWuDVzYH4C-63">
          <mxGeometry relative="1" as="geometry" />
        </mxCell>
        <mxCell id="0yuwsbS3l7bWuDVzYH4C-185" style="edgeStyle=orthogonalEdgeStyle;rounded=1;orthogonalLoop=1;jettySize=auto;html=0;exitX=1;exitY=0.3333333333333333;exitDx=0;exitDy=0;exitPerimeter=0;entryX=0.841;entryY=1.086;entryDx=0;entryDy=0;entryPerimeter=0;fontSize=17;fontColor=#000000;startArrow=oval;startFill=1;endArrow=classicThin;endFill=1;strokeColor=#99FF33;strokeWidth=4;" edge="1" parent="1" source="0yuwsbS3l7bWuDVzYH4C-177" target="0yuwsbS3l7bWuDVzYH4C-68">
          <mxGeometry relative="1" as="geometry" />
        </mxCell>
        <mxCell id="0yuwsbS3l7bWuDVzYH4C-177" value="&lt;font style=&quot;font-size: 17px&quot;&gt;&lt;b&gt;联络人员&lt;/b&gt;&lt;/font&gt;" style="shape=umlActor;verticalLabelPosition=bottom;verticalAlign=top;html=1;outlineConnect=0;rounded=1;fontSize=30;fontColor=#000000;" vertex="1" parent="1">
          <mxGeometry x="1360" y="390" width="30" height="60" as="geometry" />
        </mxCell>
      </root>
    </mxGraphModel>
  </diagram>
</mxfile>
